<svg width="1728" height="1117" viewBox="0 0 1728 1117" fill="none" xmlns="http://www.w3.org/2000/svg">
<g clip-path="url(#clip0_34_93)">
<rect width="1728" height="1117" fill="#2E3D49"/>
<g filter="url(#filter0_f_34_93)">
<ellipse cx="863.5" cy="180" rx="683.5" ry="683" fill="#0E7C7B"/>
</g>
<path d="M1393 297.187C1393.33 293.397 1394.48 289.605 1396.53 286.078L1396.57 286.013C1398.63 282.496 1401.35 279.611 1404.5 277.426C1406.45 276.067 1408.57 274.978 1410.78 274.181C1408.49 274.662 1406.14 274.843 1403.79 274.71C1399.85 274.491 1395.91 273.383 1392.27 271.308C1388.64 269.235 1385.7 266.419 1383.54 263.158C1382.15 261.069 1381.08 258.795 1380.35 256.416L1380.28 256.534C1380.75 258.962 1380.88 261.464 1380.66 263.965C1380.31 267.728 1379.15 271.493 1377.11 275L1377.09 275.025C1375.05 278.521 1372.34 281.395 1369.22 283.575C1367.13 285.036 1364.86 286.184 1362.48 287L1362.46 287.036C1364.9 286.473 1367.42 286.252 1369.94 286.391C1373.89 286.611 1377.83 287.717 1381.47 289.795C1385.11 291.873 1388.05 294.691 1390.22 297.957C1391.6 300.043 1392.67 302.31 1393.4 304.684L1393.41 304.665C1392.92 302.224 1392.77 299.705 1392.99 297.186L1393 297.187Z" fill="#F8F9FA"/>
<path d="M202.998 768.187C203.329 764.397 204.484 760.605 206.532 757.077L206.569 757.013C208.625 753.495 211.355 750.611 214.495 748.426C216.452 747.067 218.566 745.978 220.776 745.181C218.489 745.662 216.138 745.843 213.789 745.71C209.847 745.491 205.912 744.383 202.275 742.308C198.64 740.235 195.698 737.418 193.536 734.158C192.148 732.069 191.08 729.795 190.35 727.416L190.282 727.534C190.754 729.962 190.884 732.464 190.656 734.965C190.311 738.728 189.149 742.493 187.107 746L187.093 746.025C185.05 749.521 182.339 752.395 179.221 754.574C177.13 756.036 174.858 757.184 172.478 758L172.456 758.036C174.902 757.473 177.422 757.252 179.942 757.391C183.886 757.611 187.83 758.717 191.471 760.795C195.114 762.873 198.052 765.691 200.218 768.957C201.602 771.043 202.669 773.31 203.397 775.684L203.409 775.665C202.919 773.224 202.774 770.705 202.993 768.186L202.998 768.187Z" fill="#F8F9FA"/>
</g>
<defs>
<filter id="filter0_f_34_93" x="-494.8" y="-1177.8" width="2716.6" height="2715.6" filterUnits="userSpaceOnUse" color-interpolation-filters="sRGB">
<feFlood flood-opacity="0" result="BackgroundImageFix"/>
<feBlend mode="normal" in="SourceGraphic" in2="BackgroundImageFix" result="shape"/>
<feGaussianBlur stdDeviation="337.4" result="effect1_foregroundBlur_34_93"/>
</filter>
<clipPath id="clip0_34_93">
<rect width="1728" height="1117" fill="white"/>
</clipPath>
</defs>
</svg>
