<svg width="51" height="178" viewBox="0 0 51 178" fill="none" xmlns="http://www.w3.org/2000/svg">
<path d="M31 110.468L20.44 110.468L20.44 108.996L25.48 108.996C25.2773 108.409 25.0053 107.838 24.664 107.284C24.312 106.718 23.9173 106.201 23.48 105.732C23.032 105.262 22.552 104.852 22.04 104.5C21.5173 104.148 20.984 103.881 20.44 103.7L20.44 102.068C21.0587 102.281 21.64 102.564 22.184 102.916C22.728 103.257 23.224 103.652 23.672 104.1C24.12 104.537 24.5093 104.996 24.84 105.476C25.1707 105.945 25.4373 106.414 25.64 106.884L25.848 106.884C25.848 106.361 25.9173 105.892 26.056 105.476C26.1947 105.049 26.3973 104.665 26.664 104.324C26.9307 103.972 27.272 103.662 27.688 103.396C28.104 103.118 28.5947 102.868 29.16 102.644L31 101.972L31 103.62L29.592 104.052C28.92 104.297 28.3707 104.585 27.944 104.916C27.5067 105.236 27.1813 105.646 26.968 106.148C26.744 106.638 26.632 107.273 26.632 108.052L26.632 108.996L31 108.996L31 110.468ZM31.208 96.8715C31.208 97.5222 31.112 98.0982 30.92 98.5995C30.7173 99.1008 30.4293 99.5222 30.056 99.8635C29.6827 100.194 29.24 100.45 28.728 100.631C28.216 100.802 27.64 100.887 27 100.887C26.3493 100.887 25.752 100.802 25.208 100.631C24.664 100.45 24.1893 100.194 23.784 99.8635C23.3787 99.5328 23.0693 99.1275 22.856 98.6475C22.632 98.1675 22.52 97.6182 22.52 96.9995C22.52 96.4555 22.6107 95.9648 22.792 95.5275C22.9733 95.0795 23.256 94.6955 23.64 94.3755C24.0133 94.0555 24.488 93.8208 25.064 93.6715C25.6293 93.5115 26.296 93.4475 27.064 93.4795L27.112 99.9595L26.12 99.9595L26.072 94.3595L26.744 94.8555C26.072 94.8022 25.5173 94.8662 25.08 95.0475C24.6427 95.2182 24.312 95.4742 24.088 95.8155C23.864 96.1568 23.752 96.5515 23.752 96.9995C23.752 97.5008 23.88 97.9382 24.136 98.3115C24.392 98.6742 24.76 98.9568 25.24 99.1595C25.72 99.3622 26.3013 99.4635 26.984 99.4635C27.9653 99.4635 28.7173 99.2448 29.24 98.8075C29.752 98.3595 30.008 97.7088 30.008 96.8555C30.008 96.5142 29.9707 96.2208 29.896 95.9755C29.8107 95.7195 29.6987 95.5062 29.56 95.3355C29.4107 95.1542 29.24 95.0102 29.048 94.9035C28.8453 94.7862 28.6373 94.6955 28.424 94.6315L28.712 93.3515C29.1067 93.4582 29.4587 93.6075 29.768 93.7995C30.0667 93.9915 30.3227 94.2368 30.536 94.5355C30.7493 94.8235 30.9147 95.1648 31.032 95.5595C31.1493 95.9435 31.208 96.3808 31.208 96.8715ZM31.208 87.809C31.208 88.4597 31.112 89.0357 30.92 89.537C30.7173 90.0383 30.4293 90.4597 30.056 90.801C29.6827 91.1317 29.24 91.3877 28.728 91.569C28.216 91.7397 27.64 91.825 27 91.825C26.3493 91.825 25.752 91.7397 25.208 91.569C24.664 91.3877 24.1893 91.1317 23.784 90.801C23.3787 90.4703 23.0693 90.065 22.856 89.585C22.632 89.105 22.52 88.5557 22.52 87.937C22.52 87.393 22.6107 86.9023 22.792 86.465C22.9733 86.017 23.256 85.633 23.64 85.313C24.0133 84.993 24.488 84.7583 25.064 84.609C25.6293 84.449 26.296 84.385 27.064 84.417L27.112 90.897L26.12 90.897L26.072 85.297L26.744 85.793C26.072 85.7397 25.5173 85.8037 25.08 85.985C24.6427 86.1557 24.312 86.4117 24.088 86.753C23.864 87.0943 23.752 87.489 23.752 87.937C23.752 88.4383 23.88 88.8757 24.136 89.249C24.392 89.6117 24.76 89.8943 25.24 90.097C25.72 90.2997 26.3013 90.401 26.984 90.401C27.9653 90.401 28.7173 90.1823 29.24 89.745C29.752 89.297 30.008 88.6463 30.008 87.793C30.008 87.4517 29.9707 87.1583 29.896 86.913C29.8107 86.657 29.6987 86.4437 29.56 86.273C29.4107 86.0917 29.24 85.9477 29.048 85.841C28.8453 85.7237 28.6373 85.633 28.424 85.569L28.712 84.289C29.1067 84.3957 29.4587 84.545 29.768 84.737C30.0667 84.929 30.3227 85.1743 30.536 85.473C30.7493 85.761 30.9147 86.1023 31.032 86.497C31.1493 86.881 31.208 87.3183 31.208 87.809ZM33.592 82.3457L26.856 82.3457L22.728 82.3457L22.728 81.0337L24.872 81.1137L24.872 80.8737C24.4027 80.7457 23.992 80.5697 23.64 80.3457C23.288 80.1111 23.016 79.8124 22.824 79.4497C22.6213 79.0871 22.52 78.6497 22.52 78.1377C22.52 77.3804 22.712 76.7511 23.096 76.2497C23.4693 75.7377 23.9867 75.3591 24.648 75.1137C25.2987 74.8577 26.04 74.7297 26.872 74.7297C27.704 74.7297 28.4507 74.8577 29.112 75.1137C29.7627 75.3591 30.2747 75.7324 30.648 76.2337C31.0213 76.7244 31.208 77.3271 31.208 78.0417C31.208 78.6177 31.0907 79.0977 30.856 79.4817C30.6107 79.8551 30.2907 80.1537 29.896 80.3777C29.5013 80.6017 29.0853 80.7777 28.648 80.9057L28.648 81.1617C28.9467 81.1084 29.2507 81.0604 29.56 81.0177C29.8693 80.9751 30.1787 80.9431 30.488 80.9217C30.7867 80.8897 31.0747 80.8737 31.352 80.8737L33.592 80.8737L33.592 82.3457ZM29.944 78.4097C29.944 77.9404 29.8107 77.5457 29.544 77.2257C29.2667 76.9057 28.8933 76.6604 28.424 76.4897C27.9547 76.3191 27.4267 76.2337 26.84 76.2337C26.2107 76.2337 25.672 76.3244 25.224 76.5057C24.776 76.6764 24.4293 76.9217 24.184 77.2417C23.928 77.5617 23.8 77.9511 23.8 78.4097C23.8 78.8044 23.8907 79.1564 24.072 79.4657C24.2427 79.7644 24.4773 80.0204 24.776 80.2337C25.064 80.4471 25.3787 80.6124 25.72 80.7297C26.0613 80.8364 26.408 80.8897 26.76 80.8897L26.952 80.8897C27.1653 80.8897 27.4053 80.8577 27.672 80.7937C27.928 80.7297 28.1893 80.6337 28.456 80.5057C28.7227 80.3777 28.968 80.2177 29.192 80.0257C29.416 79.8231 29.5973 79.5884 29.736 79.3217C29.8747 79.0551 29.944 78.7511 29.944 78.4097ZM31.208 64.7405C31.208 65.4445 31.1333 66.0632 30.984 66.5965C30.8347 67.1192 30.616 67.5618 30.328 67.9245C30.0293 68.2765 29.6667 68.5378 29.24 68.7085C28.8133 68.8792 28.3173 68.9538 27.752 68.9325L27.464 67.6045C28.0187 67.6472 28.4827 67.5565 28.856 67.3325C29.2293 67.1085 29.512 66.7672 29.704 66.3085C29.8853 65.8498 29.976 65.3112 29.976 64.6925C29.976 64.0952 29.9013 63.5885 29.752 63.1725C29.6027 62.7565 29.3947 62.4472 29.128 62.2445C28.8613 62.0312 28.5573 61.9245 28.216 61.9245C27.832 61.9245 27.528 62.0472 27.304 62.2925C27.08 62.5378 26.9093 62.8685 26.792 63.2845C26.664 63.6898 26.5467 64.1432 26.44 64.6445C26.3333 65.1352 26.2107 65.6258 26.072 66.1165C25.9333 66.6072 25.7573 67.0498 25.544 67.4445C25.32 67.8285 25.032 68.1432 24.68 68.3885C24.3173 68.6232 23.8587 68.7405 23.304 68.7405C22.6747 68.7405 22.1307 68.5858 21.672 68.2765C21.2133 67.9565 20.8613 67.5085 20.616 66.9325C20.36 66.3565 20.232 65.6792 20.232 64.9005C20.232 64.1325 20.3547 63.4498 20.6 62.8525C20.8453 62.2445 21.208 61.7645 21.688 61.4125C22.1573 61.0605 22.7387 60.8738 23.432 60.8525L23.768 62.2285C23.384 62.2285 23.048 62.2978 22.76 62.4365C22.4613 62.5645 22.2213 62.7458 22.04 62.9805C21.848 63.2152 21.704 63.4978 21.608 63.8285C21.5013 64.1592 21.448 64.5218 21.448 64.9165C21.448 65.3965 21.5227 65.8178 21.672 66.1805C21.8213 66.5432 22.024 66.8258 22.28 67.0285C22.536 67.2312 22.84 67.3325 23.192 67.3325C23.608 67.3325 23.9387 67.1885 24.184 66.9005C24.4187 66.6018 24.6053 66.2178 24.744 65.7485C24.8827 65.2792 25.0107 64.7778 25.128 64.2445C25.224 63.7858 25.3413 63.3378 25.48 62.9005C25.608 62.4525 25.784 62.0472 26.008 61.6845C26.2213 61.3218 26.504 61.0338 26.856 60.8205C27.208 60.6072 27.656 60.5005 28.2 60.5005C28.808 60.5005 29.336 60.6605 29.784 60.9805C30.232 61.2898 30.584 61.7592 30.84 62.3885C31.0853 63.0178 31.208 63.8018 31.208 64.7405ZM31.208 54.8562C31.208 55.5709 31.096 56.1842 30.872 56.6962C30.6373 57.1976 30.3227 57.6082 29.928 57.9282C29.5227 58.2376 29.064 58.4669 28.552 58.6162C28.04 58.7656 27.5067 58.8402 26.952 58.8402C26.3333 58.8402 25.7573 58.7602 25.224 58.6002C24.6907 58.4402 24.2213 58.2002 23.816 57.8802C23.4107 57.5496 23.096 57.1389 22.872 56.6482C22.6373 56.1576 22.52 55.5869 22.52 54.9362C22.52 54.3069 22.632 53.7522 22.856 53.2722C23.0693 52.7922 23.3787 52.4029 23.784 52.1042C24.1787 51.8056 24.6427 51.6082 25.176 51.5122L25.576 52.9042C25.2667 52.9256 24.9733 53.0162 24.696 53.1762C24.4187 53.3362 24.1947 53.5656 24.024 53.8642C23.8427 54.1522 23.752 54.5202 23.752 54.9682C23.752 55.3736 23.832 55.7256 23.992 56.0242C24.152 56.3229 24.376 56.5736 24.664 56.7762C24.9413 56.9682 25.272 57.1176 25.656 57.2242C26.04 57.3202 26.4613 57.3682 26.92 57.3682C27.5387 57.3682 28.0773 57.2776 28.536 57.0962C28.9947 56.9149 29.352 56.6376 29.608 56.2642C29.864 55.8909 29.992 55.4162 29.992 54.8402C29.992 54.3922 29.9173 54.0136 29.768 53.7042C29.608 53.3949 29.3893 53.1496 29.112 52.9682C28.824 52.7869 28.4827 52.6696 28.088 52.6162L28.392 51.2882C28.8507 51.3629 29.256 51.5016 29.608 51.7042C29.96 51.8962 30.2533 52.1469 30.488 52.4562C30.7227 52.7656 30.8987 53.1229 31.016 53.5282C31.144 53.9229 31.208 54.3656 31.208 54.8562ZM31 49.627L26.536 49.627L22.728 49.627L22.728 48.315L25.624 48.443L25.624 48.187C24.9947 48.0803 24.4507 47.9257 23.992 47.723C23.5227 47.5203 23.16 47.2537 22.904 46.923C22.648 46.5817 22.52 46.1657 22.52 45.675C22.52 45.5577 22.5307 45.4297 22.552 45.291C22.5627 45.1523 22.6 44.9977 22.664 44.827L24.184 44.891C24.1307 45.051 24.088 45.211 24.056 45.371C24.024 45.531 24.008 45.6857 24.008 45.835C24.008 46.251 24.1413 46.6137 24.408 46.923C24.6747 47.2217 25.0373 47.4723 25.496 47.675C25.9547 47.8777 26.472 48.043 27.048 48.171L31 48.171L31 49.627ZM31.208 39.7934C31.208 40.5827 31.0373 41.2814 30.696 41.8894C30.344 42.4867 29.8427 42.956 29.192 43.2974C28.5413 43.6387 27.752 43.8094 26.824 43.8094C25.864 43.8094 25.0693 43.6334 24.44 43.2814C23.8 42.9187 23.32 42.4387 23 41.8414C22.68 41.2334 22.52 40.5614 22.52 39.8254C22.52 39.0574 22.6907 38.3747 23.032 37.7774C23.3627 37.1694 23.8533 36.6894 24.504 36.3374C25.144 35.9854 25.9387 35.8094 26.888 35.8094C27.8373 35.8094 28.632 35.9854 29.272 36.3374C29.912 36.6894 30.3973 37.164 30.728 37.7614C31.048 38.3587 31.208 39.036 31.208 39.7934ZM30.008 39.7294C30.008 39.228 29.8853 38.796 29.64 38.4334C29.384 38.06 29.0267 37.7774 28.568 37.5854C28.1093 37.3827 27.5653 37.2814 26.936 37.2814C26.2853 37.2814 25.7253 37.3827 25.256 37.5854C24.776 37.788 24.408 38.0814 24.152 38.4654C23.8853 38.8494 23.752 39.3134 23.752 39.8574C23.752 40.3587 23.8747 40.796 24.12 41.1694C24.3547 41.5427 24.696 41.8307 25.144 42.0334C25.592 42.236 26.1413 42.3374 26.792 42.3374C27.7947 42.3374 28.584 42.1027 29.16 41.6334C29.7253 41.164 30.008 40.5294 30.008 39.7294ZM31 33.752L19.8 33.752L19.8 32.296L31 32.296L31 33.752ZM31 29.7832L19.8 29.7832L19.8 28.3272L31 28.3272L31 29.7832ZM31 25.7985L22.728 25.7985L22.728 24.3425L31 24.3425L31 25.7985ZM21.288 25.0785C21.288 25.4092 21.2187 25.6598 21.08 25.8305C20.9413 26.0012 20.7333 26.0865 20.456 26.0865C20.1893 26.0865 19.9867 26.0012 19.848 25.8305C19.7093 25.6598 19.64 25.4092 19.64 25.0785C19.64 24.7372 19.7093 24.4812 19.848 24.3105C19.9867 24.1398 20.1893 24.0545 20.456 24.0545C20.7333 24.0545 20.9413 24.1398 21.08 24.3105C21.2187 24.4812 21.288 24.7372 21.288 25.0785ZM31 21.8145L25.896 21.8145L22.728 21.8145L22.728 20.5025L25.384 20.6305L25.384 20.3745C24.7227 20.2358 24.184 20.0385 23.768 19.7825C23.352 19.5265 23.0427 19.2065 22.84 18.8225C22.6267 18.4385 22.52 17.9905 22.52 17.4785C22.52 16.5612 22.8507 15.8678 23.512 15.3985C24.1627 14.9185 25.1387 14.6785 26.44 14.6785L31 14.6785L31 16.1505L26.568 16.1505C25.6293 16.1505 24.936 16.2998 24.488 16.5985C24.04 16.8865 23.816 17.3132 23.816 17.8785C23.816 18.3905 23.976 18.8278 24.296 19.1905C24.616 19.5425 25.0427 19.8198 25.576 20.0225C26.0987 20.2145 26.6693 20.3265 27.288 20.3585L31 20.3585L31 21.8145ZM33.8 9.17925C33.8 10.0646 33.7307 10.7846 33.592 11.3392C33.464 11.8939 33.2613 12.3046 32.984 12.5712C32.7067 12.8379 32.3653 12.9712 31.96 12.9712C31.48 12.9712 31.08 12.7846 30.76 12.4112C30.44 12.0272 30.2267 11.4406 30.12 10.6512L29.832 10.6512C29.832 11.2272 29.7627 11.6592 29.624 11.9472C29.4853 12.2246 29.2773 12.3632 29 12.3632C28.712 12.3632 28.472 12.2192 28.28 11.9312C28.0773 11.6432 27.8907 11.1792 27.72 10.5392L27.432 10.5392C27.4107 11.1792 27.2133 11.6752 26.84 12.0272C26.456 12.3686 25.96 12.5392 25.352 12.5392C24.808 12.5392 24.3387 12.3952 23.944 12.1072C23.5387 11.8086 23.2293 11.3819 23.016 10.8272C22.792 10.2619 22.68 9.58992 22.68 8.81125L22.68 4.90725L23.912 4.90725L23.512 7.46725L23.816 7.46725C23.944 6.83792 24.1627 6.36325 24.472 6.04325C24.7813 5.71258 25.1867 5.54725 25.688 5.54725C26.1467 5.54725 26.5467 5.68058 26.888 5.94725C27.2293 6.21392 27.496 6.60858 27.688 7.13125C27.8693 7.64325 27.96 8.27792 27.96 9.03525C27.96 9.18458 27.9547 9.33925 27.944 9.49925C27.9333 9.65925 27.9067 9.87792 27.864 10.1552C28.0347 10.4432 28.1947 10.6726 28.344 10.8432C28.4933 11.0139 28.6267 11.0992 28.744 11.0992C28.8613 11.0992 28.9573 11.0192 29.032 10.8592C29.096 10.6992 29.1387 10.5072 29.16 10.2832C29.1813 10.0486 29.192 9.82992 29.192 9.62725L29.192 7.73925C29.192 7.52592 29.2133 7.25925 29.256 6.93925C29.2987 6.60858 29.3893 6.28325 29.528 5.96325C29.656 5.63258 29.8693 5.35525 30.168 5.13125C30.456 4.90725 30.8507 4.79525 31.352 4.79525C31.928 4.79525 32.3973 4.96592 32.76 5.30725C33.1227 5.64858 33.384 6.14458 33.544 6.79525C33.7147 7.44592 33.8 8.24058 33.8 9.17925ZM32.584 9.16325C32.584 8.44858 32.5413 7.86725 32.456 7.41925C32.3707 6.97125 32.2267 6.64592 32.024 6.44325C31.832 6.24058 31.5867 6.13925 31.288 6.13925C31.0213 6.13925 30.8133 6.20858 30.664 6.34725C30.504 6.48592 30.392 6.66192 30.328 6.87525C30.264 7.08858 30.2267 7.30192 30.216 7.51525C30.1947 7.72858 30.184 7.91525 30.184 8.07525L30.184 9.94725C30.3227 10.5659 30.5147 10.9926 30.76 11.2272C30.9947 11.4512 31.2507 11.5632 31.528 11.5632C31.8267 11.5632 32.0507 11.4566 32.2 11.2432C32.3493 11.0299 32.4507 10.7419 32.504 10.3792C32.5573 10.0059 32.584 9.60058 32.584 9.16325ZM27.016 8.97125C27.016 8.29925 26.8773 7.79258 26.6 7.45125C26.3227 7.10992 25.9493 6.93925 25.48 6.93925C24.9787 6.93925 24.568 7.11525 24.248 7.46725C23.9173 7.80858 23.752 8.32592 23.752 9.01925C23.752 9.68058 23.9067 10.1926 24.216 10.5552C24.5253 10.9072 24.9253 11.0832 25.416 11.0832C25.736 11.0832 26.0187 11.0032 26.264 10.8432C26.4987 10.6832 26.6853 10.4486 26.824 10.1392C26.952 9.81925 27.016 9.42992 27.016 8.97125ZM28.264 2.65075L20.424 3.08275L20.424 1.30675L28.264 1.72275L28.264 2.65075ZM31.192 2.20275C31.192 2.54408 31.1173 2.80008 30.968 2.97075C30.8187 3.14142 30.584 3.22675 30.264 3.22675C29.9333 3.22675 29.6933 3.14142 29.544 2.97075C29.3947 2.80008 29.32 2.54408 29.32 2.20275C29.32 1.85075 29.3947 1.58942 29.544 1.41875C29.6933 1.23742 29.9333 1.14675 30.264 1.14675C30.8827 1.14675 31.192 1.49875 31.192 2.20275Z" fill="white"/>
<mask id="mask0_81_380" style="mask-type:alpha" maskUnits="userSpaceOnUse" x="0" y="127" width="51" height="51">
<rect y="127" width="51" height="51" fill="#D9D9D9"/>
</mask>
<g mask="url(#mask0_81_380)">
<path d="M25.5 171.625L12.0144 158.14L13.4774 156.623L24.4375 167.583V152.459H26.5625V167.624L37.5226 156.677L38.9855 158.14L25.5 171.625ZM24.4375 148.209V141.834H26.5625V148.209H24.4375ZM24.4375 137.584V133.334H26.5625V137.584H24.4375Z" fill="#F8F9FA"/>
</g>
</svg>
