<svg width="51" height="51" viewBox="0 0 51 51" fill="none" xmlns="http://www.w3.org/2000/svg">
<path d="M28.3277 43.2866C29.4081 39.6393 31.2969 36.1545 34.0084 33.1069L34.058 33.0515C36.7747 30.015 40.0253 27.7338 43.5388 26.2199C45.7273 25.2785 48.0167 24.6337 50.3407 24.2942C48.0038 24.3089 45.6643 24.0163 43.389 23.417C39.5705 22.4153 35.9361 20.5439 32.7862 17.7847C29.6386 15.0276 27.3181 11.6805 25.8503 8.05386C24.9081 5.72952 24.3155 3.28828 24.0751 0.811947L23.9846 0.913084C23.9625 3.38717 23.5909 5.86431 22.8675 8.26951C21.7784 11.8878 19.888 15.3453 17.1868 18.3741L17.1675 18.3958C14.4679 21.413 11.2377 23.6884 7.7471 25.2009C5.4066 26.2154 2.95085 26.8862 0.455639 27.2111L0.427631 27.2424C2.93642 27.1785 5.45042 27.465 7.89155 28.1043C11.7124 29.1082 15.356 30.979 18.5085 33.7426C21.6634 36.5061 23.9793 39.8535 25.4498 43.4868C26.3894 45.8067 26.9817 48.2412 27.2218 50.713L27.2369 50.6961C27.2442 48.207 27.6054 45.71 28.323 43.2846L28.3277 43.2866Z" fill="#0E7C7B"/>
</svg>
